<svg width="56" height="56" viewBox="0 0 56 56" fill="none" xmlns="http://www.w3.org/2000/svg">
<rect width="56" height="56" rx="8" fill="#1F1D2B"/>
<path d="M25.7305 18.7884C27.0005 17.7794 28.7805 17.7394 30.0895 18.6684L30.2505 18.7884L36.3395 23.6594C37.0095 24.1784 37.4205 24.9494 37.4905 25.7884L37.5005 25.9894V34.0984C37.5005 36.1884 35.8495 37.8884 33.7805 37.9984H31.7905C30.8395 37.9794 30.0705 37.2394 30.0005 36.3094L29.9905 36.1684V33.3094C29.9905 32.9984 29.7595 32.7394 29.4505 32.6884L29.3605 32.6784H26.6895C26.3705 32.6884 26.1105 32.9184 26.0705 33.2184L26.0605 33.3094V36.1594C26.0605 36.2184 26.0495 36.2884 26.0405 36.3384L26.0305 36.3594L26.0195 36.4284C25.9005 37.2794 25.2005 37.9284 24.3305 37.9894L24.2005 37.9984H22.4105C20.3205 37.9984 18.6105 36.3594 18.5005 34.2984V25.9894C18.5095 25.1384 18.8805 24.3484 19.5005 23.7984L25.7305 18.7884ZM29.3805 19.8784C28.6205 19.2684 27.5405 19.2394 26.7405 19.7684L26.5895 19.8784L20.5095 24.7794C20.1605 25.0384 19.9505 25.4284 19.9005 25.8384L19.8895 25.9984V34.0984C19.8895 35.4284 20.9295 36.5184 22.2505 36.5984H24.2005C24.4205 36.5984 24.6105 36.4494 24.6395 36.2394L24.6605 36.0594L24.6705 36.0084V33.3094C24.6705 32.2394 25.4905 31.3694 26.5405 31.2884H29.3605C30.4295 31.2884 31.2995 32.1094 31.3805 33.1594V36.1684C31.3805 36.3784 31.5305 36.5594 31.7305 36.5984H33.5895C34.9295 36.5984 36.0195 35.5694 36.0995 34.2584L36.1105 34.0984V25.9984C36.0995 25.5694 35.9205 25.1684 35.6105 24.8694L35.4805 24.7584L29.3805 19.8784Z" fill="#EA7C69"/>
</svg>
