<svg width="56" height="56" viewBox="0 0 56 56" fill="none" xmlns="http://www.w3.org/2000/svg">
<rect width="56" height="56" rx="8" fill="#1F1D2B"/>
<path d="M26.4978 22.7606C26.5855 22.9348 26.6382 23.1239 26.6533 23.321L27.0419 28.8095C27.0471 28.8847 27.0827 28.9548 27.1409 29.0042C27.1845 29.0413 27.2381 29.0645 27.298 29.0712L27.3599 29.0724L32.9341 28.7366C33.3867 28.71 33.8305 28.8675 34.1604 29.1719C34.4902 29.4763 34.6768 29.9004 34.6744 30.3912C34.4265 34.0037 31.773 37.0237 28.159 37.8065C24.545 38.5893 20.8361 36.9474 19.0578 33.7848C18.5823 32.9695 18.2618 32.0778 18.1138 31.1749L18.0664 30.8359C18.0253 30.5821 18.0032 30.3257 18 30.0795L18.0031 29.8372C18.0134 26.0655 20.6616 22.804 24.3881 21.9243L24.6438 21.8681L24.7814 21.8453C25.502 21.7468 26.211 22.1245 26.4978 22.7606ZM25.0164 23.2781L24.9322 23.2877L24.7037 23.3393C21.7353 24.0548 19.6062 26.6103 19.488 29.621L19.4828 29.8661C19.4757 30.0525 19.4825 30.2392 19.505 30.4378L19.5328 30.6408C19.6321 31.495 19.9079 32.3206 20.3491 33.0772C21.8163 35.6863 24.8667 37.0367 27.839 36.3929C30.8113 35.7491 32.9936 33.2653 33.1958 30.3414C33.1958 30.2974 33.1774 30.2552 33.1446 30.225C33.1228 30.2049 33.0959 30.1912 33.0675 30.1851L33.024 30.1817L27.459 30.5169C26.9894 30.5503 26.5255 30.3992 26.17 30.0971C25.8146 29.7951 25.5968 29.3669 25.5652 28.91L25.177 23.4262C25.1763 23.4171 25.1739 23.4082 25.1568 23.373C25.1315 23.3169 25.0765 23.2813 25.0164 23.2781ZM29.423 18.0011C33.7084 18.1223 37.3029 21.2016 37.9904 25.3408L38 25.4567L37.9977 25.6585C37.9737 25.9562 37.8538 26.2393 37.6545 26.4668C37.4041 26.7524 37.0477 26.9286 36.6588 26.9567L30.0133 27.39C29.1615 27.4382 28.4295 26.8051 28.3741 25.9735L27.9299 19.4491L27.9349 19.303L27.957 19.1382C28.0162 18.8462 28.1684 18.5794 28.3925 18.3764C28.6739 18.1216 29.0474 17.9866 29.423 18.0011ZM29.4113 19.449L29.8511 25.8781C29.8537 25.9172 29.888 25.9469 29.9214 25.945L36.5182 25.5135L36.4854 25.3335C35.8318 22.0802 33.0119 19.6644 29.6287 19.4593L29.4113 19.449Z" fill="#EA7C69"/>
</svg>
