<svg width="56" height="56" viewBox="0 0 56 56" fill="none" xmlns="http://www.w3.org/2000/svg">
<rect width="56" height="56" rx="8" fill="#1F1D2B"/>
<path d="M30.608 35.6906C30.9045 35.9321 30.9515 36.3713 30.7129 36.6715C30.5366 36.8935 30.3327 37.0922 30.1167 37.255C29.3891 37.826 28.464 38.0849 27.5453 37.9754C26.6258 37.8659 25.787 37.3962 25.2146 36.6689C24.9774 36.3676 25.0265 35.9286 25.3242 35.6885C25.6219 35.4484 26.0555 35.4981 26.2927 35.7995C26.6379 36.2381 27.1467 36.523 27.7064 36.5896C28.2669 36.6564 28.8307 36.4986 29.2826 36.1443C29.4158 36.0437 29.5355 35.927 29.6389 35.7969C29.8775 35.4967 30.3114 35.4491 30.608 35.6906ZM21.1521 24.9997L21.1644 24.4039C21.1732 24.1491 21.1869 23.9125 21.2068 23.681C21.5065 20.4446 24.5956 18 27.9648 18H28.0361C31.4034 18 34.4934 20.4429 34.8034 23.6854C34.8212 23.8915 34.8288 24.0746 34.8311 24.3321L34.832 25.1198C34.8327 25.1916 34.8339 25.2547 34.8358 25.3135L34.845 25.5098L34.8896 25.6969C35.0303 26.218 35.2776 26.7052 35.6162 27.1282L35.7669 27.3055L35.8286 27.3847C36.2348 27.9917 36.4668 28.698 36.5 29.4587L36.499 29.862C36.4707 30.763 36.1399 31.6331 35.5338 32.3582C34.7311 33.2101 33.6434 33.7393 32.4873 33.8457C29.502 34.1699 26.49 34.1699 23.513 33.8466C22.349 33.7346 21.2644 33.2069 20.4266 32.3223C19.8088 31.5691 19.4804 30.6208 19.5009 29.6624L19.5017 29.4242C19.5374 28.6955 19.768 27.9898 20.1694 27.3802L20.2365 27.2938C20.7052 26.7799 21.0257 26.151 21.1647 25.4731L21.1497 25.534L21.1521 24.9997ZM28.0361 19.3953H27.9648C25.2665 19.3953 22.808 21.3409 22.5797 23.8068C22.568 23.9423 22.5587 24.0821 22.5514 24.2292L22.5353 24.6956L22.5288 25.6149L22.5144 25.7567C22.3244 26.683 21.8873 27.5409 21.2493 28.2404L21.2986 28.1833L21.2104 28.3291C21.0454 28.6265 20.9389 28.9495 20.8968 29.2682L20.8794 29.4587L20.8792 29.6774C20.8657 30.3142 21.0809 30.9356 21.4537 31.3931C22.0288 31.9985 22.8068 32.377 23.6517 32.4583C26.5393 32.7719 29.4527 32.7719 32.3514 32.4572C33.1871 32.3802 33.9645 32.002 34.5084 31.4267C34.92 30.933 35.1375 30.3097 35.1216 29.6536L35.1224 29.4901C35.1013 29.0186 34.951 28.5613 34.6873 28.1672L34.7026 28.1926L34.5647 28.0309C34.0893 27.4441 33.744 26.7635 33.5517 26.034L33.4868 25.7582L33.4739 25.6655C33.4642 25.5301 33.4585 25.4098 33.4555 25.2651L33.4528 24.3605C33.4509 24.1304 33.4447 23.9756 33.4307 23.8133C33.1944 21.3408 30.7336 19.3953 28.0361 19.3953Z" fill="#EA7C69"/>
</svg>
